<?xml version="1.0" standalone="no"?>
<!DOCTYPE svg PUBLIC "-//W3C//DTD SVG 20010904//EN"
 "http://www.w3.org/TR/2001/REC-SVG-20010904/DTD/svg10.dtd">
<svg version="1.0" xmlns="http://www.w3.org/2000/svg"
 width="512.000000pt" height="512.000000pt" viewBox="0 0 512.000000 512.000000"
 preserveAspectRatio="xMidYMid meet">
<metadata>
Created by potrace 1.16, written by Peter Selinger 2001-2019
</metadata>
<g transform="translate(0.000000,512.000000) scale(0.100000,-0.100000)"
fill="#000000" stroke="none">
<path d="M2490 4839 c-183 -17 -364 -50 -565 -104 -107 -29 -169 -48 -200 -60
-16 -7 -48 -18 -70 -25 -46 -15 -44 -14 -195 -76 -63 -26 -135 -58 -159 -71
-24 -13 -48 -23 -53 -23 -5 0 -14 -5 -21 -10 -7 -6 -46 -31 -87 -56 -95 -56
-114 -68 -120 -74 -3 -3 -25 -21 -50 -40 -25 -19 -56 -45 -70 -58 -14 -13 -31
-20 -40 -16 -41 17 -100 25 -148 19 -44 -5 -56 -12 -78 -41 -20 -26 -25 -42
-22 -70 4 -30 -1 -41 -26 -67 -73 -71 -83 -115 -39 -168 l27 -32 -23 -41 c-31
-56 -100 -194 -116 -231 -7 -16 -20 -46 -29 -67 -9 -20 -16 -41 -16 -47 0 -6
-4 -19 -9 -29 -18 -35 -53 -172 -75 -294 -22 -119 -22 -483 -1 -565 22 -82 19
-112 -11 -144 -44 -46 -51 -149 -10 -149 32 0 46 13 46 44 0 17 5 38 10 46 12
19 23 9 78 -74 32 -48 38 -64 32 -85 -10 -30 -29 -87 -41 -116 -35 -92 -52
-229 -45 -359 5 -87 12 -119 33 -165 51 -110 145 -196 238 -217 49 -12 54 -30
21 -83 -31 -49 -35 -110 -8 -134 13 -12 36 -17 72 -17 44 0 59 -5 80 -25 29
-28 108 -37 135 -15 21 17 34 5 86 -83 29 -47 91 -120 182 -213 76 -78 155
-165 175 -193 59 -81 184 -133 256 -105 20 8 21 38 0 54 -8 8 -27 33 -41 57
-14 25 -44 57 -66 71 -22 15 -50 34 -62 42 -36 25 -204 177 -295 269 -77 78
-172 204 -187 249 -21 66 -60 122 -84 122 -5 0 -14 10 -20 22 -9 17 -8 28 6
55 17 31 17 34 1 52 -15 16 -34 20 -126 23 -104 3 -110 4 -147 34 -48 39 -87
110 -109 197 -17 71 -16 97 10 222 29 139 35 162 47 191 46 112 56 125 113
149 34 15 43 15 94 0 63 -18 122 -45 122 -57 0 -5 6 -8 14 -8 8 0 25 -14 38
-30 36 -47 139 -150 152 -151 62 -7 68 11 75 214 4 108 12 191 19 203 11 20
23 22 157 29 128 7 148 5 164 -9 24 -22 123 -38 186 -30 l50 6 0 -214 c0 -253
7 -289 87 -454 49 -102 82 -134 203 -192 117 -57 256 -79 405 -63 84 9 130 24
177 58 17 13 35 23 39 23 4 0 34 28 68 63 63 65 130 166 180 272 60 126 68
148 117 325 18 66 20 228 3 234 -8 3 -14 12 -14 20 0 7 -23 38 -52 67 -28 30
-57 63 -63 74 -6 11 -26 23 -45 26 -19 4 -60 14 -90 23 -30 9 -71 19 -90 22
-84 13 -82 12 -61 33 11 11 29 24 40 31 31 16 28 65 -5 95 -24 22 -36 25 -110
25 -45 0 -85 -4 -88 -9 -4 -5 -24 -12 -46 -16 -22 -4 -42 -11 -46 -16 -3 -5
-12 -9 -21 -9 -9 0 -53 -23 -97 -52 -80 -51 -108 -62 -197 -78 -149 -27 -258
-93 -295 -179 -12 -30 -17 -33 -41 -26 -62 16 -144 17 -176 2 -26 -12 -53 -14
-147 -7 -126 10 -178 18 -186 31 -5 8 18 155 36 229 49 202 66 265 81 292 5
10 9 27 9 39 0 12 12 43 26 70 29 53 46 61 209 94 186 38 320 72 445 113 46
14 63 20 113 41 15 6 30 11 32 11 13 0 2 -38 -25 -87 -35 -64 -38 -103 -9
-129 18 -16 35 -19 120 -16 54 1 111 7 126 13 15 6 55 14 88 19 89 13 146 25
185 38 19 7 71 24 115 38 44 14 95 32 113 40 38 17 99 42 127 53 11 5 39 17
62 26 36 15 61 17 150 12 128 -7 292 5 383 28 36 8 76 18 90 21 14 3 39 12 57
20 57 26 75 19 156 -59 74 -71 76 -75 86 -138 5 -35 12 -143 15 -239 3 -96 8
-191 11 -210 3 -19 2 -40 -2 -47 -13 -19 -156 -28 -174 -12 -26 25 -79 53
-164 88 -51 22 -151 45 -196 45 -57 1 -79 -17 -79 -66 0 -51 35 -68 193 -93
23 -4 37 -11 34 -18 -5 -16 -60 -26 -207 -37 -69 -5 -155 -14 -192 -20 -37 -5
-103 -10 -147 -10 -44 0 -83 -4 -86 -10 -8 -13 334 -13 425 0 101 14 153 15
157 4 2 -5 -15 -29 -37 -53 -23 -24 -47 -56 -56 -72 l-15 -29 -158 0 c-87 0
-161 -3 -165 -7 -4 -5 -22 -13 -39 -19 -26 -9 0 -11 135 -12 92 0 172 -3 177
-7 15 -9 14 -45 -4 -95 -8 -24 -15 -77 -15 -121 0 -56 4 -82 15 -93 10 -10 15
-36 15 -85 0 -38 5 -73 10 -76 11 -7 14 -48 4 -58 -3 -3 -24 5 -46 19 -24 15
-57 26 -81 27 -37 2 -42 -1 -45 -20 -2 -13 0 -23 5 -23 10 0 66 -52 101 -94
32 -38 41 -120 18 -167 -43 -91 -158 -90 -282 2 -59 43 -107 51 -130 22 -37
-49 -1 -96 120 -157 53 -27 69 -30 155 -30 79 0 101 3 126 19 73 48 115 120
115 199 0 30 4 57 9 60 5 3 26 -14 47 -37 64 -71 164 -137 206 -137 8 0 19 -5
24 -10 10 -10 208 -16 245 -8 18 4 18 -267 1 -392 -35 -247 -142 -468 -313
-642 -103 -104 -180 -161 -284 -212 -233 -112 -306 -128 -535 -120 -114 5
-245 24 -295 44 -67 27 -235 55 -272 45 -18 -4 -23 -13 -23 -35 0 -63 166
-177 293 -202 175 -34 578 -21 697 22 93 34 120 45 185 75 39 18 88 47 110 64
22 17 45 34 50 38 111 86 190 161 245 233 19 25 38 47 42 48 5 2 8 8 8 14 0 5
11 24 25 42 14 18 25 36 25 40 0 3 11 23 23 44 20 31 52 107 97 227 40 106 68
336 69 566 l1 167 56 53 c48 46 144 175 144 193 0 3 11 29 23 58 24 53 45 120
67 213 6 28 14 108 17 178 l6 129 32 -6 c46 -9 162 10 181 29 16 15 16 18 0
33 -18 18 -116 23 -191 10 l-41 -8 -23 51 c-47 99 -135 154 -274 174 -54 8
-53 7 -61 125 -3 41 -6 84 -8 95 -2 15 8 26 41 42 65 33 95 98 99 217 3 52 -1
106 -8 130 -26 87 -44 132 -69 170 -59 88 -57 79 -28 117 14 19 39 62 54 95
23 51 27 75 31 177 l4 117 -31 29 c-18 16 -42 31 -54 33 -19 3 -22 10 -25 58
-3 77 -17 99 -65 107 l-39 6 6 51 c6 46 4 54 -16 73 -13 11 -41 23 -63 27
-130 22 -216 37 -260 45 -48 10 -189 52 -230 70 -11 4 -45 16 -75 26 -30 10
-59 22 -64 26 -6 5 -16 9 -24 9 -8 0 -29 7 -48 15 -19 8 -49 22 -68 30 -19 8
-45 15 -59 15 -14 0 -27 3 -29 8 -5 11 -77 42 -99 42 -11 0 -28 4 -38 10 -17
9 -143 24 -281 34 -30 2 -102 0 -160 -5z m1763 -2106 c77 -39 109 -91 127
-205 22 -145 -13 -344 -87 -488 -43 -84 -115 -181 -127 -169 -3 3 -11 116 -16
250 -5 134 -14 329 -20 434 -7 136 -6 191 2 196 15 10 88 -1 121 -18z m-248
-5 c6 -31 14 -258 21 -643 l6 -320 -34 -15 c-21 -9 -66 -14 -128 -14 -82 0
-102 4 -150 27 -81 39 -123 78 -183 170 -85 130 -128 262 -97 293 6 6 13 35
15 65 7 64 22 136 43 203 17 56 110 161 164 187 18 9 46 22 61 30 36 17 133
17 149 1 19 -19 58 -15 58 6 0 25 9 32 41 32 22 0 30 -6 34 -22z m-1435 -28
c120 -10 151 -17 239 -59 93 -44 152 -135 151 -234 -1 -44 -47 -225 -61 -241
-5 -6 -9 -18 -9 -28 0 -10 -4 -26 -10 -36 -5 -9 -23 -48 -40 -87 -40 -92 -59
-126 -95 -170 -84 -103 -168 -168 -258 -199 -69 -23 -246 -22 -315 2 -29 10
-55 22 -59 25 -3 4 -14 7 -24 7 -10 0 -24 6 -31 13 -7 6 -29 21 -48 31 -39 21
-120 103 -120 121 0 6 -11 35 -25 63 -14 29 -25 59 -25 68 0 8 -4 23 -9 32
-17 31 -41 201 -41 285 0 89 20 211 44 267 22 54 71 91 154 118 27 9 34 8 39
-5 3 -9 1 -24 -6 -34 -16 -27 -8 -24 57 18 95 61 170 67 492 43z"/>
<path d="M3621 2535 c-13 -7 -36 -33 -52 -56 -35 -53 -38 -115 -10 -181 26
-61 46 -78 91 -78 50 0 72 30 96 128 15 63 16 77 4 113 -14 41 -64 90 -91 88
-8 -1 -25 -7 -38 -14z"/>
<path d="M2373 2537 c-40 -20 -53 -68 -53 -196 0 -129 5 -142 63 -156 52 -13
91 45 112 165 13 78 2 167 -23 186 -20 16 -68 16 -99 1z"/>
<path d="M648 2053 c-20 -5 -25 -39 -7 -45 13 -4 15 -47 4 -100 -6 -31 -4 -40
18 -62 30 -30 55 -32 105 -9 l35 17 31 -37 c32 -39 77 -67 104 -67 9 0 29 12
44 27 40 38 38 82 -5 125 -38 38 -178 128 -199 128 -8 0 -18 4 -23 9 -12 11
-84 21 -107 14z"/>
<path d="M2843 1241 c-35 -22 -49 -64 -34 -102 21 -55 155 -151 226 -162 149
-23 175 -20 288 33 76 36 161 152 155 213 -4 45 -41 50 -77 10 -38 -43 -116
-103 -133 -103 -7 0 -19 -5 -26 -12 -17 -17 -108 -16 -167 2 -35 11 -64 30
-100 66 -42 43 -83 74 -97 74 -2 0 -17 -9 -35 -19z"/>
</g>
</svg>
